<?xml version="1.0" encoding="utf-8"?>
<!-- Generator: Adobe Illustrator 21.0.0, SVG Export Plug-In . SVG Version: 6.00 Build 0)  -->
<svg version="1.1" id="Layer_1" xmlns="http://www.w3.org/2000/svg" xmlns:xlink="http://www.w3.org/1999/xlink" x="0px" y="0px"
	 viewBox="0 0 3000 845.8" style="enable-background:new 0 0 3000 845.8;" xml:space="preserve">
<style type="text/css">
	.st0{fill:#FF00D7;}
</style>
<path class="st0" d="M1124.4,125.1c3.1-0.4,5-1,7.1-1c13.9-0.2,27.8,0,41.7-0.4c4.2,0,7.7,1.5,11.2,3.7c21.4,13.1,42.6,26,64,39
	c55.5,33.9,111.1,67.7,166.6,101.6c11,6.7,9.8,4.4,9.6,17.4c-0.4,33-1,66-1.3,98.9c0,3.7,0.2,7.3,0.2,11.8
	c21.2-7.3,42.4-12,63.3-17.9c21-6,42.2-11.6,63.3-17.2c20.8-5.6,41.7-11.2,62.5-16.8c21.2-5.8,42.2-11.4,63.4-17.2
	c21-5.8,42.2-11.4,63.3-17.2s42.2-11.6,63.3-17.2c21-5.8,42.2-11.4,63.4-17.2c21.2-5.8,42.2-11.4,63.4-17.2
	c20.8-5.6,41.7-11.4,62.5-17c21-5.8,42.2-11.6,63.3-17.2c21.2-5.8,42.2-11.4,63.4-17.2s42.2-11.4,63.4-17.2
	c21-5.8,42.2-11.6,63.3-17.2c21-5.8,42.2-11.6,63.3-17.2c20.8-5.6,41.7-11.2,62.5-17c21.2-5.8,42.2-11.4,63.4-17
	c21.2-5.8,42.2-11.4,63.3-17.2c21-5.8,42.2-11.6,63.3-17.2c21-5.8,42.2-11.4,63.4-17.2s42.2-11.4,63.4-17.2
	c20.8-5.6,41.7-11.2,62.5-17c21-5.8,42.2-11.6,63.3-17.4c21-5.8,42.2-11.4,63.1-17c3.7,1.2,4.4,4.4,6,7.1
	c8.5,15.6,17,31.4,25.5,47.2c20.4,37.8,40.7,75.4,61.1,113.2c2.3,4.2,3.5,8.3,3.9,13.1c1.3,14.7,3.3,29.3,4.8,44.2
	c1.5,14.1,2.7,28.2,4.2,42.2c1.5,14.5,3.3,28.7,4.8,43.2c1.5,13.7,2.9,27.6,4.2,41.5c1.5,15,3.3,30.1,4.8,45.1
	c1.3,12.5,2.7,25.1,4.1,37.6c0,0.6-0.2,1.2-0.6,2.3c-1.5,0.4-3.1,1.2-4.8,1.2c-15,1.2-30.1,2.3-45.1,3.5c-13.5,1-27,1.9-40.5,3.1
	c-9.4,0.8-19.1,1.5-28.5,2.1c-12.3,0.8-24.7,1.5-36.8,2.3c-12.9,1-25.8,1.9-38.8,2.9c-9.3,0.8-18.5,1.3-27.6,2.1
	c-12,0.8-23.9,1.5-36.1,2.3c-13.5,1-27,2.1-40.5,3.1c-10.8,0.8-21.6,1.5-32.2,2.3c-12.5,0.8-25.3,1.5-37.8,2.3
	c-12,0.8-23.9,1.9-35.9,2.9c-9.8,0.8-19.7,1.3-29.5,2.1c-6.4,0.6-12.7,1.5-19.3,2.3c-18.9,2.3-38,3.3-57.3,4
	c-14.5,0.6-28.9,2.3-43.4,3.3c-10.8,0.8-21.6,1.2-32.4,1.9c-12.9,0.8-25.8,1.7-38.8,2.7c-10.2,0.8-20.2,1.7-30.5,2.3
	c-23.1,1.5-46.1,2.9-69.2,4.4c-12.9,0.8-25.8,2.1-38.8,2.9c-14.1,1-28.3,1.3-42.4,2.3c-11.8,0.8-23.3,1.5-35.1,2.3
	c-14.5,1-28.9,2.1-43.4,3.1c-13.3,1-26.4,2.1-39.7,3.1c-9.3,0.8-18.5,1.3-27.6,2.1c-12.3,0.8-24.7,1.5-36.8,2.3
	c-13.3,1-26.4,2.1-39.7,3.1c-8.9,0.8-17.7,1.3-26.8,1.9c-12,0.8-23.9,1.5-36.1,2.3c-11.4,0.8-22.8,1.7-34.1,2.5
	c-14.8,1.2-29.5,2.1-44.4,3.1c-13.3,1-26.4,2.1-39.7,3.1c-8.9,0.8-17.7,1.3-26.8,1.9c-13.3,0.8-26.4,1.5-39.7,2.5
	c-12.3,0.8-24.5,1.9-36.8,2.9c-12,1-23.9,1.5-36.1,2.5c-14.1,1-28.3,2.1-42.4,3.1c-11.8,0.8-23.3,1.5-35.1,2.3
	c-14.8,1-29.5,2.1-44.4,3.3c-12,0.8-23.9,1.5-36.1,2.5c-13.9,1-27.6,2.1-41.5,3.1c-3.7,0.2-7.3,0.4-11,0.6c-3.1,0.2-6.2,0.2-9.3,0.6
	c-5.8,0.8-6.9,1.7-7.1,7.5c-0.2,3.5-0.2,6.7-0.2,10.2c-0.2,64.4-0.6,129-1,193.4c0,6.2-0.4,12.3-0.6,18.5c-0.2,3.7-1,7.3-3.1,10.4
	c-12,17.5-24.1,35.1-36.1,52.6c-0.6,0.8-1.2,1.3-1.5,1.9c-3.9,0.2-6-2.1-8.5-3.9c-36.6-23.9-73.3-48-109.9-71.9
	c-44.2-28.9-88.3-57.7-132.5-86.6c-3.1-1.9-6.2-4-9.3-6.4c-1.2-4.6-1-9.3-1-13.9c0.2-16,0.4-32,0.6-48.2c0-3.3,0.8-6.7-1-9.8
	c-2.9-1.7-5.4-0.4-8.1,0.2c-26,6.7-51.9,13.3-77.9,20.1c-89.5,23.1-179,46.3-268.4,69.4c-105.5,27.4-211.2,54.8-316.7,82.2
	C368.8,797.6,288.8,818.4,209,839c-3.9,1-7.7,1.9-11.6,3.1c-5.4,1.7-10.8,1.3-16.2-0.2c-19.7-6.2-39.5-12-59.4-17.7
	c-37.4-11.2-75-22.4-112.4-33.6c-2.9-1-5.8-1.9-8.7-3.1c-1.3-3.7-0.4-7.1,0.2-10.4c5.2-31.6,10.6-63.3,15.8-94.9
	c4.6-28,9.1-55.9,13.7-83.9c3.7-22.6,7.3-44.9,11.2-67.5c0.4-2.3,1.3-4.6,2.1-6.9c4.4-1.7,8.7-1.9,13.1-2.3
	c14.1-1,28.3-2.1,42.4-3.3c8.9-0.8,17.7-1.3,26.8-1.9c20.2-1.3,40.7-2.7,60.9-4.2c11-0.8,22.2-1.9,33.2-2.9
	c9.4-0.8,19.1-1.5,28.5-2.1c12-0.8,23.9-1.5,36.1-2.3c12-1,23.9-1.9,35.9-2.9c8.9-0.8,17.7-1.5,26.8-2.1c11.8-0.8,23.3-1.5,35.1-2.3
	c12.3-1,24.5-2.1,36.8-3.1c8.7-0.8,17.2-1.3,25.8-1.9c11.8-0.8,23.3-1.5,35.1-2.3c12.3-1,24.5-1.9,36.8-3.1
	c9.3-0.8,18.5-1.5,27.6-2.1c12-0.8,23.9-1.5,36.1-2.3c11.8-1,23.3-1.9,35.1-2.9c8.9-0.8,17.7-1.3,26.8-2.1
	c20.2-1.3,40.7-2.7,60.9-4.2s40.5-3.3,60.7-4.8c11.4-1,22.8-1.5,34.1-2.3c12.5-1,25.3-2.1,37.8-3.1c9.3-0.8,18.5-1.5,27.6-2.1
	c11.8-0.8,23.3-1.5,35.1-2.3c12-1,23.9-1.9,35.9-2.9c8.9-0.8,17.7-1.5,26.8-2.1c11.8-0.8,23.3-1.5,35.1-2.3
	c12.3-1,24.5-2.1,36.8-3.1c9.4-0.8,19.1-1.5,28.5-2.1c12-0.8,23.9-1.5,36.1-2.3c5.8-0.4,11.8-1,17.5-1.5c4.6-0.6,6.6-2.1,7.1-6.9
	c0.4-2.7,0.2-5.6,0.2-8.3c0.6-96.2,1-192.5,1.5-288.7C1124.2,134.2,1124.4,130.1,1124.4,125.1z"/>
</svg>
